<svg width="88" height="79" viewBox="0 0 88 79" fill="none" xmlns="http://www.w3.org/2000/svg">
<path opacity="0.5" d="M51.3022 76.1967C62.2798 73.0267 71.0266 64.2799 74.2553 53.1262" stroke="white" stroke-width="2" stroke-miterlimit="10" stroke-linecap="round" stroke-linejoin="round"/>
<path d="M50.7163 75H49.7788C49.3413 75 48.9976 75.55 48.9976 76.25C48.9976 76.95 49.3413 77.5 49.7788 77.5H50.7163C51.1538 77.5 51.4976 76.95 51.4976 76.25C51.4976 75.55 51.1538 75 50.7163 75Z" stroke="white" stroke-width="2" stroke-miterlimit="10" stroke-linecap="round" stroke-linejoin="round"/>
<path d="M12.7476 30C14.0163 13.9241 27.5865 1.25 44.0803 1.25C60.0225 1.25 73.2065 13.0463 75.2476 28.354" stroke="white" stroke-width="2" stroke-miterlimit="10" stroke-linecap="round" stroke-linejoin="round"/>
<path opacity="0.5" d="M5.63078 36.5723C3.34134 37.7463 1.75635 40.0945 1.75635 42.8536C1.75635 45.6126 3.34135 48.0195 5.68949 49.1935" stroke="white" stroke-width="2" stroke-miterlimit="10" stroke-linecap="round" stroke-linejoin="round"/>
<path d="M18.78 52.5988V50.3681V33.1092C18.78 31.9938 18.0169 31.1133 17.0189 31.1133H11.0312C8.15467 31.1133 5.86523 33.7549 5.86523 37.0423V48.6657C5.86523 51.9531 8.15467 54.5947 11.0312 54.5947H17.0189C18.0169 54.5947 18.78 53.7142 18.78 52.5988Z" stroke="white" stroke-width="2" stroke-miterlimit="10" stroke-linecap="round" stroke-linejoin="round"/>
<path opacity="0.5" d="M82.3569 47.6082C84.7638 46.4928 86.4662 44.0273 86.4662 41.2095C86.4662 38.3917 84.7638 35.9262 82.3569 34.8108" stroke="white" stroke-width="2" stroke-miterlimit="10" stroke-linecap="round" stroke-linejoin="round"/>
<path d="M69.2661 31.3477V33.5785V50.7786C69.2661 51.894 70.0293 52.7746 71.0272 52.7746H77.015C79.8915 52.7746 82.1809 50.1329 82.1809 46.8455V35.2809C82.1809 31.9935 79.8915 29.3518 77.015 29.3518H71.0272C70.0293 29.3518 69.2661 30.2324 69.2661 31.3477Z" stroke="white" stroke-width="2" stroke-miterlimit="10" stroke-linecap="round" stroke-linejoin="round"/>
</svg>
