<svg width="96" height="81" viewBox="0 0 96 81" fill="none" xmlns="http://www.w3.org/2000/svg">
<path d="M47.9834 50.7451C39.6226 50.7451 32.7715 43.952 32.7715 35.5332C32.7715 27.1724 39.5646 20.3213 47.9834 20.3213C56.3441 20.3213 63.1953 27.1144 63.1953 35.5332C63.1953 43.8939 56.3441 50.7451 47.9834 50.7451ZM47.9834 22.0631C40.5516 22.0631 34.5133 28.1014 34.5133 35.5332C34.5133 42.9649 40.5516 49.0032 47.9834 49.0032C55.4152 49.0032 61.4535 42.9649 61.4535 35.5332C61.4535 28.1014 55.4152 22.0631 47.9834 22.0631Z" fill="white"/>
<path d="M70.3947 59.2219L85.8388 74.666C86.8258 75.6531 86.8258 77.2788 85.8388 78.2658C84.8518 79.2528 83.2261 79.2528 82.2391 78.2658L66.7949 62.8217" stroke="white" stroke-width="2" stroke-miterlimit="10" stroke-linecap="round" stroke-linejoin="round"/>
<path d="M57.4469 51.6739C57.1566 51.5578 56.8082 51.6159 56.576 51.7901C54.3116 53.5319 51.0602 54.577 47.9249 54.577C44.7897 54.577 41.5383 53.5319 39.2739 51.7901C39.0416 51.6159 38.6933 51.5578 38.403 51.6739C34.571 53.1835 31.1454 55.6801 28.4746 58.8154C28.881 59.2218 29.2875 59.6282 29.7519 60.0347C32.1324 57.1897 35.2677 54.9253 38.6352 53.4738C40.8996 55.0995 43.8607 56.0865 46.8798 56.2607L47.9249 56.2876L48.97 56.2607C51.9311 56.0865 54.9503 55.0414 57.2146 53.4738C60.6402 54.9253 63.7174 57.1897 66.0979 60.0347C66.5043 59.6282 66.9688 59.2218 67.3752 58.8154C64.7625 55.6801 61.2789 53.1835 57.4469 51.6739Z" fill="white"/>
<path d="M18.1401 28.5658C18.3724 28.0433 18.5466 27.4627 18.8369 26.9401C14.7146 24.6177 11.9276 20.2051 11.9276 15.2119C11.9276 7.78013 17.9659 1.74182 25.3977 1.74182C30.8554 1.74182 35.5583 4.99322 37.6485 9.69613C38.1711 9.52195 38.7517 9.34776 39.3323 9.17358C37.0098 3.77394 31.6102 0 25.3977 0C17.037 0 10.1858 6.7931 10.1858 15.2119C10.1278 20.9599 13.3792 26.0112 18.1401 28.5658Z" fill="white" fill-opacity="0.5"/>
<path d="M58.3757 9.69613C60.4659 4.99322 65.1688 1.74182 70.6265 1.74182C78.0582 1.74182 84.0966 7.78013 84.0966 15.2119C84.0966 20.2632 81.3096 24.6758 77.1873 26.9401C77.4196 27.4627 77.6518 27.9852 77.8841 28.5658C82.645 26.0112 85.8964 20.9599 85.8964 15.2119C85.8964 6.85116 79.1033 0 70.6846 0C64.4721 0 59.0724 3.77394 56.75 9.17358C57.2725 9.34776 57.7951 9.52195 58.3757 9.69613Z" fill="white" fill-opacity="0.5"/>
<path d="M18.7204 52.6609H1.88284C2.40539 44.3002 7.97921 36.5781 16.0496 33.1525C16.2238 33.2687 16.4561 33.4428 16.6883 33.559C16.8044 32.9203 16.9786 32.3397 17.0947 31.7591C16.9786 31.643 16.8044 31.5849 16.6883 31.4688C16.4561 31.2946 16.1077 31.2365 15.8174 31.3527C6.58575 35.0685 0.257145 43.9518 0.0249023 53.5318C0.0249023 53.7641 0.0829628 53.9963 0.257145 54.1705C0.431327 54.3447 0.663569 54.4608 0.895812 54.4608H19.4752C19.243 53.8221 18.9527 53.2415 18.7204 52.6609Z" fill="white" fill-opacity="0.5"/>
<path d="M80.0909 31.3526C79.8006 31.2365 79.4522 31.2946 79.22 31.4688C79.1039 31.5849 78.9297 31.643 78.8136 31.7591C78.9877 32.3397 79.1039 32.9783 79.22 33.559C79.4522 33.4428 79.6264 33.2687 79.8586 33.1525C87.9291 36.5781 93.5029 44.3002 94.0254 52.6609H77.1879C76.9556 53.2415 76.6653 53.8221 76.375 54.4027H94.9544C95.1866 54.4027 95.4189 54.2866 95.5931 54.1124C95.7673 53.9382 95.8253 53.706 95.8253 53.4737C95.7092 43.9518 89.3806 35.0105 80.0909 31.3526Z" fill="white" fill-opacity="0.5"/>
<path d="M47.9831 69.3824C64.2726 69.3824 77.4779 56.1772 77.4779 39.8876C77.4779 23.5981 64.2726 10.3928 47.9831 10.3928C31.6936 10.3928 18.4883 23.5981 18.4883 39.8876C18.4883 56.1772 31.6936 69.3824 47.9831 69.3824Z" stroke="white" stroke-width="2" stroke-miterlimit="10" stroke-linecap="round" stroke-linejoin="round"/>
</svg>
