<svg width="80" height="87" viewBox="0 0 80 87" fill="none" xmlns="http://www.w3.org/2000/svg">
<path d="M42.7825 24.4508V47.6516M23.5591 50.966H39.4682M45.7655 50.9659C45.7655 52.6133 44.4299 53.9489 42.7825 53.9489C41.1351 53.9489 39.7996 52.6133 39.7996 50.9659C39.7996 49.3185 41.1351 47.9829 42.7825 47.9829C44.4299 47.9829 45.7655 49.3185 45.7655 50.9659Z" stroke="white" stroke-opacity="0.5" stroke-width="2" stroke-miterlimit="10" stroke-linecap="round" stroke-linejoin="round"/>
<path d="M78.0001 50.9659C78.0001 32.5 63.6628 15.625 42.7821 15.625C60.7461 15.625 78.6251 30.625 78.0001 50.9659ZM78.0001 50.9659C78.0001 71.8465 59.2501 85.625 42.7821 85.625M78.0001 50.9659C78.0001 68.9299 61.7501 85.625 42.7821 85.625M42.7821 85.625C23.8984 85.625 7.64951 71.8465 7.64951 50.9659M42.7821 85.625C21.7501 86.25 7.64951 68.9299 7.64951 50.9659M7.64951 50.9659V41.6855M1.68359 50.9659L7.64951 41.6855M7.64951 41.6855L13.6154 50.9659" stroke="white" stroke-width="2" stroke-miterlimit="10" stroke-linecap="round" stroke-linejoin="round"/>
<path opacity="0.5" d="M27.1504 18.6568L30.2553 17.3711L33.3977 16.375C30.2159 17.2367 27.1667 18.4962 24.25 20.1534L27.1504 18.6568Z" stroke="white" stroke-width="2" stroke-miterlimit="10" stroke-linecap="round" stroke-linejoin="round"/>
<path opacity="0.5" d="M12.9484 31.0575L14.9807 28.3811L17.1916 25.9359C14.8789 28.285 12.8814 30.9106 11.1989 33.8128L12.9484 31.0575Z" stroke="white" stroke-width="2" stroke-miterlimit="10" stroke-linecap="round" stroke-linejoin="round"/>
<path d="M44.7707 9.20456V5.89016H48.0851V1.25H37.479V5.89016" stroke="white" stroke-width="2" stroke-miterlimit="10" stroke-linecap="round" stroke-linejoin="round"/>
<path d="M70.2256 19.4791L72.5457 17.0928L76.3241 20.8712L73.9377 23.1913" stroke="white" stroke-width="2" stroke-miterlimit="10" stroke-linecap="round" stroke-linejoin="round"/>
</svg>
