<svg width="88" height="79" viewBox="0 0 88 79" fill="none" xmlns="http://www.w3.org/2000/svg"><path d="M51.302 76.197c10.978-3.17 19.725-11.917 22.953-23.07M50.716 75h-.937c-.438 0-.781.55-.781 1.25s.343 1.25.78 1.25h.938c.438 0 .782-.55.782-1.25S51.154 75 50.716 75zM12.748 30C14.016 13.924 27.587 1.25 44.08 1.25c15.943 0 29.127 11.796 31.168 27.104M5.63 36.572c-2.289 1.174-3.874 3.522-3.874 6.282a7.084 7.084 0 003.933 6.34m13.091 3.405v-19.49c0-1.115-.763-1.996-1.761-1.996H11.03c-2.876 0-5.166 2.642-5.166 5.93v11.623c0 3.287 2.29 5.929 5.166 5.929h5.988c.998 0 1.761-.88 1.761-1.996zm63.577-4.991c2.407-1.115 4.11-3.58 4.11-6.398 0-2.818-1.703-5.284-4.11-6.4m-13.091-3.462v19.43c0 1.116.763 1.997 1.761 1.997h5.988c2.876 0 5.166-2.642 5.166-5.93V35.282c0-3.287-2.29-5.93-5.166-5.93h-5.988c-.998 0-1.76.881-1.76 1.997z" stroke="#fff" stroke-width="2" stroke-miterlimit="10" stroke-linecap="round" stroke-linejoin="round"/></svg>