<svg width="96" height="81" viewBox="0 0 96 81" fill="none" xmlns="http://www.w3.org/2000/svg"><path d="M47.983 50.745c-8.36 0-15.211-6.793-15.211-15.212 0-8.36 6.793-15.212 15.211-15.212 8.361 0 15.212 6.793 15.212 15.212 0 8.36-6.85 15.212-15.212 15.212zm0-28.682c-7.431 0-13.47 6.038-13.47 13.47s6.039 13.47 13.47 13.47c7.432 0 13.47-6.038 13.47-13.47s-6.038-13.47-13.47-13.47z" fill="#fff"/><path d="M70.395 59.222l15.444 15.444a2.558 2.558 0 010 3.6 2.558 2.558 0 01-3.6 0L66.795 62.822" stroke="#fff" stroke-width="2" stroke-miterlimit="10" stroke-linecap="round" stroke-linejoin="round"/><path d="M57.447 51.674a.926.926 0 00-.871.116c-2.264 1.742-5.516 2.787-8.651 2.787s-6.387-1.045-8.651-2.787a.926.926 0 00-.871-.116c-3.832 1.51-7.258 4.006-9.928 7.141a26 26 0 001.277 1.22c2.38-2.845 5.516-5.11 8.883-6.561 2.265 1.626 5.226 2.613 8.245 2.787l1.045.027 1.045-.027c2.961-.175 5.98-1.22 8.245-2.787a23.666 23.666 0 018.883 6.56c.406-.406.87-.812 1.277-1.219-2.612-3.135-6.096-5.631-9.928-7.141zM18.14 28.566c.232-.523.407-1.103.697-1.626-4.122-2.322-6.91-6.735-6.91-11.728 0-7.432 6.039-13.47 13.47-13.47A13.39 13.39 0 0137.65 9.696a60.239 60.239 0 011.683-.522C37.01 3.774 31.61 0 25.398 0c-8.361 0-15.212 6.793-15.212 15.212-.058 5.748 3.193 10.8 7.954 13.354zm40.236-18.87a13.39 13.39 0 0112.25-7.954c7.432 0 13.47 6.038 13.47 13.47 0 5.051-2.786 9.464-6.909 11.728.233.523.465 1.045.697 1.626 4.761-2.555 8.012-7.606 8.012-13.354C85.896 6.852 79.103 0 70.685 0 64.472 0 59.072 3.774 56.75 9.174a54.64 54.64 0 001.626.522zM18.72 52.66H1.883c.522-8.36 6.096-16.082 14.167-19.507.174.116.406.29.638.406.116-.639.29-1.22.407-1.8-.116-.116-.29-.174-.407-.29a.926.926 0 00-.87-.116C6.585 35.068.257 43.952.024 53.532c0 .232.058.464.232.639.174.174.407.29.639.29h18.58c-.233-.639-.523-1.22-.756-1.8zm61.37-21.307a.926.926 0 00-.87.116c-.116.116-.29.174-.406.29.174.58.29 1.22.406 1.8.232-.116.406-.29.639-.406 8.07 3.425 13.644 11.147 14.166 19.508H77.188c-.232.58-.523 1.161-.813 1.742h18.58c.232 0 .464-.116.638-.29.174-.175.232-.407.232-.64-.116-9.521-6.444-18.462-15.734-22.12z" fill="#fff"/><path d="M47.983 69.382c16.29 0 29.495-13.205 29.495-29.494 0-16.29-13.205-29.495-29.495-29.495S18.488 23.598 18.488 39.888s13.206 29.494 29.495 29.494z" stroke="#fff" stroke-width="2" stroke-miterlimit="10" stroke-linecap="round" stroke-linejoin="round"/></svg>