<svg width="80" height="87" viewBox="0 0 80 87" fill="none" xmlns="http://www.w3.org/2000/svg"><path d="M42.782 24.45v23.202M23.56 50.966h15.91m6.297 0a2.983 2.983 0 11-5.967 0 2.983 2.983 0 015.967 0zm32.233 0C78 32.5 63.663 15.625 42.782 15.625c17.964 0 35.843 15 35.218 35.34zm0 0c0 20.88-18.75 34.659-35.218 34.659M78 50.965c0 17.965-16.25 34.66-35.218 34.66m0 0c-18.884 0-35.132-13.778-35.132-34.66m35.132 34.66C21.75 86.25 7.65 68.93 7.65 50.965m0 0v-9.28m-5.966 9.28l5.966-9.28m0 0l5.965 9.28M27.15 18.657l3.105-1.286 3.143-.996a39.193 39.193 0 00-9.148 3.778l2.9-1.496zM12.948 31.058l2.033-2.677 2.21-2.445a39.194 39.194 0 00-5.992 7.877l1.75-2.756zM44.77 9.205V5.89h3.315V1.25H37.48v4.64m32.746 13.59l2.32-2.387 3.778 3.778-2.386 2.32" stroke="#fff" stroke-width="2" stroke-miterlimit="10" stroke-linecap="round" stroke-linejoin="round"/></svg>